<svg width="340" height="120" viewBox="0 0 340 120">
  <defs>
    <linearGradient id="brandGrad" x1="0%" y1="0%" x2="100%" y2="100%">
      <stop offset="0%" stop-color="#6366F1"/>
      <stop offset="100%" stop-color="#8B5CF6"/>
    </linearGradient>
    <filter id="glow" x="-50%" y="-50%" width="200%" height="200%">
      <feGaussianBlur stdDeviation="2" result="coloredBlur"/>
      <feMerge>
        <feMergeNode in="coloredBlur"/>
        <feMergeNode in="SourceGraphic"/>
      </feMerge>
    </filter>
  </defs>

  <!-- Icon (scaled down) -->
  <g transform="translate(10, 10) scale(0.195)">
    <rect width="512" height="512" rx="96" fill="#0f172a"/>
    <line x1="220" y1="150" x2="292" y2="150" stroke="#8B5CF6" stroke-width="14" stroke-linecap="round" filter="url(#glow)"/>
    <line x1="150" y1="220" x2="150" y2="292" stroke="#8B5CF6" stroke-width="14" stroke-linecap="round" filter="url(#glow)"/>
    <line x1="362" y1="220" x2="362" y2="292" stroke="#8B5CF6" stroke-width="14" stroke-linecap="round" filter="url(#glow)"/>
    <line x1="220" y1="362" x2="292" y2="362" stroke="#8B5CF6" stroke-width="14" stroke-linecap="round" filter="url(#glow)"/>
    <circle cx="220" cy="150" r="10" fill="#a78bfa"/>
    <circle cx="292" cy="150" r="10" fill="#a78bfa"/>
    <circle cx="150" cy="220" r="10" fill="#a78bfa"/>
    <circle cx="150" cy="292" r="10" fill="#a78bfa"/>
    <circle cx="362" cy="220" r="10" fill="#a78bfa"/>
    <circle cx="362" cy="292" r="10" fill="#a78bfa"/>
    <circle cx="220" cy="362" r="10" fill="#a78bfa"/>
    <circle cx="292" cy="362" r="10" fill="#a78bfa"/>
    <rect x="70" y="70" width="150" height="150" rx="24" fill="url(#brandGrad)"/>
    <rect x="292" y="70" width="150" height="150" rx="24" fill="#ffffff"/>
    <rect x="70" y="292" width="150" height="150" rx="24" fill="#ffffff"/>
    <rect x="292" y="292" width="150" height="150" rx="24" fill="url(#brandGrad)"/>
  </g>

  <!-- Text - white for dark backgrounds -->
  <text x="130" y="72" font-family="system-ui, -apple-system, 'Segoe UI', Roboto, sans-serif" font-size="42" font-weight="600" fill="#ffffff">itsjesse</text>
  <text x="130" y="100" font-family="system-ui, -apple-system, 'Segoe UI', Roboto, sans-serif" font-size="18" font-weight="400" fill="#a78bfa">.dev</text>
</svg>